name C:\Users\r0593348\3dpredictsim\Results\Batchsim_tmt_linear\Pog_s1_tmt_aCst_d00_k1000_ig24_pas.mot
datacolumns 128
datarows 4
range 0.00000000 0.03314644
endheader
time	pelvis_tilt	pelvis_list	pelvis_rotation	pelvis_tx	pelvis_ty	pelvis_tz	hip_flexion_l	hip_adduction_l	hip_rotation_l	hip_flexion_r	hip_adduction_r	hip_rotation_r	knee_angle_l	knee_angle_r	ankle_angle_l	ankle_angle_r	subtalar_angle_l	subtalar_angle_r	tmt_angle_l	tmt_angle_r	mtp_angle_l	mtp_angle_r	lumbar_extension	lumbar_bending	lumbar_rotation	arm_flex_l	arm_add_l	arm_rot_l	arm_flex_r	arm_add_r	arm_rot_r	elbow_flex_l	elbow_flex_r	pro_sup_l	pro_sup_r	glut_med1_l/activation	glut_med2_l/activation	glut_med3_l/activation	glut_min1_l/activation	glut_min2_l/activation	glut_min3_l/activation	semimem_l/activation	semiten_l/activation	bifemlh_l/activation	bifemsh_l/activation	sar_l/activation	add_long_l/activation	add_brev_l/activation	add_mag1_l/activation	add_mag2_l/activation	add_mag3_l/activation	tfl_l/activation	pect_l/activation	grac_l/activation	glut_max1_l/activation	glut_max2_l/activation	glut_max3_l/activation	iliacus_l/activation	psoas_l/activation	quad_fem_l/activation	gem_l/activation	peri_l/activation	rect_fem_l/activation	vas_med_l/activation	vas_int_l/activation	vas_lat_l/activation	med_gas_l/activation	lat_gas_l/activation	soleus_l/activation	tib_post_l/activation	flex_dig_l/activation	flex_hal_l/activation	tib_ant_l/activation	per_brev_l/activation	per_long_l/activation	per_tert_l/activation	ext_dig_l/activation	ext_hal_l/activation	ercspn_l/activation	intobl_l/activation	extobl_l/activation	glut_med1_r/activation	glut_med2_r/activation	glut_med3_r/activation	glut_min1_r/activation	glut_min2_r/activation	glut_min3_r/activation	semimem_r/activation	semiten_r/activation	bifemlh_r/activation	bifemsh_r/activation	sar_r/activation	add_long_r/activation	add_brev_r/activation	add_mag1_r/activation	add_mag2_r/activation	add_mag3_r/activation	tfl_r/activation	pect_r/activation	grac_r/activation	glut_max1_r/activation	glut_max2_r/activation	glut_max3_r/activation	iliacus_r/activation	psoas_r/activation	quad_fem_r/activation	gem_r/activation	peri_r/activation	rect_fem_r/activation	vas_med_r/activation	vas_int_r/activation	vas_lat_r/activation	med_gas_r/activation	lat_gas_r/activation	soleus_r/activation	tib_post_r/activation	flex_dig_r/activation	flex_hal_r/activation	tib_ant_r/activation	per_brev_r/activation	per_long_r/activation	per_tert_r/activation	ext_dig_r/activation	ext_hal_r/activation	ercspn_r/activation	intobl_r/activation	extobl_r/activation	
          0.00000000	         -2.92312265	         -2.53040203	          6.28754389	          0.00000000	          0.85490878	         -0.00304451	        -18.46182491	         -2.43066110	          7.42034802	         31.90599779	          3.34728780	         -3.00130769	         -8.64308286	        -15.63149870	         -0.09165244	          5.97902982	         12.04808476	         -2.98889233	          1.00058885	          0.03269861	         23.02058421	         -0.10377594	         -2.07429894	          1.06015169	         -2.09950311	          7.79493133	        -13.46639936	         16.73461919	        -11.20453974	        -13.58028045	          5.41491114	         41.51858016	         15.00825687	         86.51662706	         86.51662706	          0.23528562	          0.08476291	          0.05531349	          0.28965389	          0.19254920	          0.09542311	          0.05001233	          0.05000115	          0.05000091	          0.07350307	          0.09836973	          0.12119641	          0.12944656	          0.05035180	          0.05002291	          0.05000360	          0.29001089	          0.11635176	          0.05008790	          0.05001626	          0.05000776	          0.05000645	          0.35647457	          0.59351399	          0.05000370	          0.05000528	          0.05000102	          0.21998730	          0.11407740	          0.09488498	          0.07438231	          0.28749189	          0.38885855	          0.26416640	          0.24958163	          0.27508954	          0.34484285	          0.05000011	          0.06587276	          0.15894340	          0.05000046	          0.05000015	          0.05000056	          0.05000008	          0.05000691	          0.05000119	          0.05920720	          0.05920763	          0.05000065	          0.05920776	          0.05920768	          0.05920439	          0.05000414	          0.05000210	          0.28890577	          0.05000071	          0.05000150	          0.11590014	          0.25111732	          0.12718338	          0.13822201	          0.13616784	          0.05000073	          0.06988872	          0.06052474	          0.05000156	          0.05000142	          0.16141182	          0.05920654	          0.05367366	          0.32217675	          0.19640419	          0.14236380	          0.06352313	          0.20216988	          0.19694073	          0.17255378	          0.05000024	          0.05000027	          0.05000038	          0.05000006	          0.05000139	          0.05000115	          0.63125263	          0.35945100	          0.20328295	          0.40723452	          0.60155091	          0.32662336	          0.06015714	          0.08786866	          0.09209445	
          0.01104881	         -2.91194819	         -2.63281975	          6.54040608	          0.01705090	          0.85375751	         -0.00282019	        -18.15949735	         -2.74412181	          7.22485042	         31.22813336	          3.73541810	         -2.76208377	        -10.91993301	        -15.86730100	         -1.12857422	          5.36339371	         13.07805572	         -3.49518493	          0.93043087	          0.01901791	         23.98368121	         -0.07070453	         -1.84497663	          1.30694958	         -2.18616127	          7.53131401	        -13.48371519	         16.92905871	        -12.36145935	        -13.57211846	          5.32329672	         42.70136761	         14.95170391	         86.51662706	         86.51662706	          0.19869659	          0.07158151	          0.05897919	          0.24461026	          0.16260608	          0.08058403	          0.05001389	          0.05000158	          0.05000303	          0.06207269	          0.08307285	          0.20989245	          0.23512032	          0.06975334	          0.05921197	          0.05920985	          0.24491211	          0.09827007	          0.05000670	          0.05005629	          0.05016398	          0.05920501	          0.30103938	          0.54073704	          0.05920685	          0.05920583	          0.05000713	          0.18577721	          0.13784841	          0.13784951	          0.13784815	          0.24278399	          0.32838715	          0.22308586	          0.21076942	          0.23231116	          0.29121687	          0.05000007	          0.05562924	          0.15253378	          0.05000033	          0.05000014	          0.05000041	          0.06519065	          0.05920749	          0.05000042	          0.05000014	          0.05000062	          0.13981009	          0.05000051	          0.05000056	          0.05000069	          0.05000042	          0.05000090	          0.24397818	          0.05000055	          0.05000760	          0.09787710	          0.21206686	          0.32513674	          0.23006797	          0.14442721	          0.05000387	          0.05903495	          0.07593607	          0.10872807	          0.11707589	          0.13631201	          0.05000057	          0.05919700	          0.41053846	          0.16586160	          0.12022504	          0.05920863	          0.20891762	          0.22500880	          0.18674610	          0.05000122	          0.05001826	          0.05000013	          0.05920738	          0.07011633	          0.07011008	          0.54342429	          0.38856724	          0.23308060	          0.34390595	          0.57383063	          0.27583045	          0.05080214	          0.07420422	          0.07777286	
          0.02209762	         -2.89695103	         -2.73310047	          6.75981876	          0.03430102	          0.85258167	         -0.00260393	        -17.75369964	         -3.03691012	          7.01379404	         30.37798194	          4.05802026	         -2.47964292	        -13.35736984	        -16.33687567	         -2.33850931	          4.93585044	         14.02567893	         -4.03751238	          0.84173849	         -0.00837448	         24.71179705	         -0.19675805	         -1.60150089	          1.55547225	         -2.26186662	          7.19116323	        -13.50290569	         17.05843364	        -13.49143381	        -13.56889646	          5.30287515	         43.83755489	         14.89395973	         86.51662706	         86.51662706	          0.28015531	          0.06044995	          0.05000016	          0.34198883	          0.13731957	          0.06805260	          0.06582631	          0.05000073	          0.05000050	          0.05242024	          0.07015607	          0.17725286	          0.19855740	          0.05890644	          0.05000513	          0.05000278	          0.27068592	          0.08301339	          0.05000288	          0.05000346	          0.05000185	          0.05000122	          0.25422514	          0.49959364	          0.05000030	          0.05000127	          0.05000046	          0.15688703	          0.11641175	          0.11641266	          0.11641150	          0.20502863	          0.27731965	          0.18839375	          0.17799277	          0.19618490	          0.24593006	          0.05005155	          0.11230223	          0.17141071	          0.05000133	          0.14232905	          0.05000405	          0.08238676	          0.05000015	          0.05000028	          0.27453753	          0.28902439	          0.36639653	          0.36545419	          0.21781179	          0.18559736	          0.07647951	          0.08448459	          0.20603728	          0.07134696	          0.05001892	          0.08265652	          0.17908863	          0.27457528	          0.19429104	          0.15707449	          0.05000118	          0.05001828	          0.06415398	          0.22328636	          0.18021771	          0.13133771	          0.05000169	          0.05000080	          0.34669595	          0.14006918	          0.24712139	          0.05000125	          0.17642968	          0.19690754	          0.15770635	          0.05000404	          0.05000216	          0.05185573	          0.05000016	          0.05921290	          0.05920772	          0.59800578	          0.39287982	          0.19683518	          0.62219245	          0.64995114	          0.30947569	          0.07093825	          0.08316909	          0.06567842	
          0.03314644	         -2.88010327	         -2.82263260	          6.93956111	          0.05150942	          0.85143029	         -0.00235307	        -17.22190502	         -3.30068662	          6.79923750	         29.46063450	          4.36667823	         -2.20329363	        -15.96500734	        -16.76198759	         -3.61852453	          4.65312120	         14.88772892	         -4.60447631	          0.68875758	         -0.01721965	         24.98402168	         -0.20359050	         -1.36672354	          1.79461747	         -2.32661712	          6.82024008	        -13.52956139	         17.14976743	        -14.53477340	        -13.56550488	          5.36742444	         44.89040698	         14.79447937	         86.51662706	         86.51662706	          0.23658856	          0.05104959	          0.05000039	          0.28880650	          0.11596527	          0.05747006	          0.09059541	          0.05000118	          0.05000172	          0.05000033	          0.05924661	          0.20067880	          0.20416229	          0.10690955	          0.05030487	          0.11726850	          0.22859453	          0.07010557	          0.05000190	          0.05001399	          0.05001011	          0.05000843	          0.21469065	          0.43265327	          0.05000072	          0.05000291	          0.05000065	          0.13248956	          0.09830937	          0.09830989	          0.09830890	          0.17314461	          0.23419368	          0.15909662	          0.15031330	          0.16567681	          0.20768600	          0.16213534	          0.12835420	          0.14475552	          0.24098205	          0.24052145	          0.11838676	          0.11052408	          0.05000012	          0.05000017	          0.40459121	          0.46001608	          0.53272695	          0.30867332	          0.28270100	          0.43167944	          0.07747779	          0.12004646	          0.17399649	          0.06025521	          0.05000135	          0.06980299	          0.15123917	          0.23188225	          0.23221460	          0.18745967	          0.05000100	          0.05033376	          0.12075649	          0.30933076	          0.23385364	          0.18568598	          0.05000048	          0.05000046	          0.29278154	          0.11828749	          0.27329530	          0.05000013	          0.23643177	          0.27248082	          0.21425036	          0.05000008	          0.05000018	          0.05000002	          0.05000012	          0.05000516	          0.05000099	          0.73286456	          0.33178313	          0.16622538	          0.58949685	          0.65057850	          0.45405179	          0.09540103	          0.07023549	          0.05546482	
